<svg xmlns="http://www.w3.org/2000/svg" width="760" height="420" role="img" aria-label="Wamda-3B training loss curve">
<rect width="100%" height="100%" fill="#0d1117" rx="12"/>
<text x="24" y="30" fill="#e6edf3" font-family="sans-serif" font-size="16" font-weight="bold">Wamda-3B — training loss (log scale)</text>
<line x1="64" y1="326.2" x2="740" y2="326.2" stroke="#21262d" stroke-width="1"/>
<text x="56" y="330.2" fill="#8b949e" font-family="monospace" font-size="11" text-anchor="end">1e-3</text>
<line x1="64" y1="234.6" x2="740" y2="234.6" stroke="#21262d" stroke-width="1"/>
<text x="56" y="238.6" fill="#8b949e" font-family="monospace" font-size="11" text-anchor="end">1e-2</text>
<line x1="64" y1="143.1" x2="740" y2="143.1" stroke="#21262d" stroke-width="1"/>
<text x="56" y="147.1" fill="#8b949e" font-family="monospace" font-size="11" text-anchor="end">1e-1</text>
<line x1="64" y1="51.5" x2="740" y2="51.5" stroke="#21262d" stroke-width="1"/>
<text x="56" y="55.5" fill="#8b949e" font-family="monospace" font-size="11" text-anchor="end">1e0</text>
<text x="52.5" y="402" fill="#8b949e" font-family="monospace" font-size="11" text-anchor="middle">iter 0</text>
<text x="167.1" y="402" fill="#8b949e" font-family="monospace" font-size="11" text-anchor="middle">iter 100</text>
<text x="281.7" y="402" fill="#8b949e" font-family="monospace" font-size="11" text-anchor="middle">iter 200</text>
<text x="396.3" y="402" fill="#8b949e" font-family="monospace" font-size="11" text-anchor="middle">iter 300</text>
<text x="510.8" y="402" fill="#8b949e" font-family="monospace" font-size="11" text-anchor="middle">iter 400</text>
<text x="625.4" y="402" fill="#8b949e" font-family="monospace" font-size="11" text-anchor="middle">iter 500</text>
<text x="740.0" y="402" fill="#8b949e" font-family="monospace" font-size="11" text-anchor="middle">iter 600</text>
<path d="M64.0,99.6 L75.5,157.8 L86.9,183.7 L98.4,201.5 L109.8,198.2 L121.3,169.1 L132.7,167.6 L144.2,176.6 L155.7,199.8 L167.1,199.8 L178.6,230.8 L190.0,262.2 L201.5,238.8 L212.9,262.2 L224.4,238.8 L235.9,298.6 L247.3,282.5 L258.8,326.2 L270.2,326.2 L281.7,254.9 L293.2,227.4 L304.6,215.9 L316.1,262.2 L327.5,271.1 L339.0,282.5 L350.4,326.2 L361.9,326.2 L373.4,326.2 L384.8,326.2 L396.3,271.1 L419.2,248.8 L430.6,326.2 L442.1,326.2 L476.5,326.2 L487.9,271.1 L499.4,326.2 L522.3,326.2 L533.8,326.2 L556.7,326.2 L568.1,326.2 L579.6,326.2 L591.1,326.2 L614.0,326.2 L625.4,326.2 L636.9,326.2 L648.3,326.2 L659.8,326.2 L671.3,326.2 L682.7,326.2 L694.2,326.2 L705.6,326.2 L717.1,326.2 L728.5,326.2 L740.0,326.2" fill="none" stroke="#f0b429" stroke-width="2.5"/>
<circle cx="53.7" cy="39.4" r="5" fill="#1f6feb" stroke="#e6edf3" stroke-width="1.5"/>
<text x="53.7" y="29.4" fill="#79c0ff" font-family="monospace" font-size="11" text-anchor="middle">1.353</text>
<circle cx="167.1" cy="199.8" r="5" fill="#1f6feb" stroke="#e6edf3" stroke-width="1.5"/>
<text x="167.1" y="189.8" fill="#79c0ff" font-family="monospace" font-size="11" text-anchor="middle">0.024</text>
<circle cx="281.7" cy="271.1" r="5" fill="#1f6feb" stroke="#e6edf3" stroke-width="1.5"/>
<text x="281.7" y="261.1" fill="#79c0ff" font-family="monospace" font-size="11" text-anchor="middle">0.004</text>
<circle cx="396.3" cy="271.1" r="5" fill="#1f6feb" stroke="#e6edf3" stroke-width="1.5"/>
<text x="396.3" y="261.1" fill="#79c0ff" font-family="monospace" font-size="11" text-anchor="middle">0.004</text>
<circle cx="510.8" cy="326.2" r="5" fill="#1f6feb" stroke="#e6edf3" stroke-width="1.5"/>
<text x="510.8" y="316.2" fill="#79c0ff" font-family="monospace" font-size="11" text-anchor="middle">0.001</text>
<circle cx="625.4" cy="282.5" r="5" fill="#1f6feb" stroke="#e6edf3" stroke-width="1.5"/>
<text x="625.4" y="272.5" fill="#79c0ff" font-family="monospace" font-size="11" text-anchor="middle">0.003</text>
<circle cx="740.0" cy="227.4" r="5" fill="#1f6feb" stroke="#e6edf3" stroke-width="1.5"/>
<text x="740.0" y="217.4" fill="#79c0ff" font-family="monospace" font-size="11" text-anchor="middle">0.012</text>
<line x1="510" y1="28" x2="540" y2="28" stroke="#f0b429" stroke-width="2.5"/>
<text x="546" y="32" fill="#8b949e" font-family="sans-serif" font-size="12">train</text>
<circle cx="610" cy="28" r="5" fill="#1f6feb" stroke="#e6edf3" stroke-width="1.5"/>
<text x="620" y="32" fill="#8b949e" font-family="sans-serif" font-size="12">val</text>
</svg>